<?xml version="1.0" encoding="UTF-8" standalone="no"?>
<!DOCTYPE svg PUBLIC "-//W3C//DTD SVG 1.1//EN" "http://www.w3.org/Graphics/SVG/1.1/DTD/svg11.dtd">
<svg width="100%" height="100%" viewBox="0 0 315 363" version="1.1" xmlns="http://www.w3.org/2000/svg" xmlns:xlink="http://www.w3.org/1999/xlink" xml:space="preserve" xmlns:serif="http://www.serif.com/" style="fill-rule:evenodd;clip-rule:evenodd;stroke-linejoin:round;stroke-miterlimit:2;">
    <g id="Artboard2" transform="matrix(0.563119,0,0,0.878299,-300.743,198.634)">
        <rect x="534.066" y="-226.158" width="558.743" height="412.981" style="fill:none;"/>
        <g id="Layer-1" serif:id="Layer 1" transform="matrix(1.77582,0,0,1.13856,538.573,-221.902)">
            <g transform="matrix(1,0,0,1,-198.892,-21.6674)">
                <path d="M210.252,178.318C209.547,178.379 209.016,178.419 208.675,178.435C208.084,178.462 207.723,178.385 207.6,178.349L207.6,178.348C205.265,177.648 203.961,175.773 203.439,173.36C202.794,170.382 203.459,166.515 203.929,164.419C203.243,163.97 202.395,163.348 201.605,162.586C200.303,161.328 199.203,159.701 198.944,157.89L198.944,157.889C198.548,155.112 200.47,150.123 202.319,147.405C202.986,146.426 203.666,145.721 204.202,145.366C204.761,144.997 205.296,144.87 205.742,144.87C207.121,144.87 216.313,143.86 219.193,142.215C233.473,134.055 257.236,130.346 265.622,129.245C264.419,127.15 262.812,124.166 261.858,121.644C261.269,120.083 260.937,118.662 260.955,117.631C260.968,116.877 261.15,116.253 261.434,115.768C263.251,112.67 265.591,109.851 268.351,107.306C274.299,99.328 286.559,88.015 310.951,80.361C314.121,79.366 310.81,38.743 350.656,29.986C353.625,32.954 342.244,73.095 345.116,72.557L369.046,69.394C374.443,69.089 369.921,29.11 411.956,21.667C412.394,40.057 406.702,73.334 406.702,73.334C442.349,77.756 465.436,135.878 468.485,180.581C468.497,180.56 492.745,213.515 495.873,220.087C527.041,285.58 486.41,378.112 485.892,376.766C459.375,376.766 412.944,376.821 412.932,376.766C340.392,376.766 326.033,335.816 324.093,336.354C322.212,336.876 320.318,337.319 318.667,337.551C320.389,335.897 322.134,334.296 323.748,332.855C321.528,333.469 319.485,334.486 317.524,334.742C318.937,333.418 320.386,332.007 321.75,330.81C319.717,331.333 317.337,331.84 315.647,332.33C316.926,331.16 319.163,329.362 320.41,328.293C318.598,328.718 315.688,329.44 314.097,329.596C316.139,327.798 318.254,326.282 320.159,325.062C320.097,324.951 320.036,324.839 319.971,324.721C317.698,325.687 315.093,326.582 312.554,326.986C313.907,325.817 315.228,324.322 316.547,323.259C314.636,323.647 312.71,323.955 311.046,324.064C312.88,322.534 314.736,321.061 316.449,319.741C314.19,320.191 312.078,321.056 310.101,321.162C311.608,319.942 313.156,318.644 314.606,317.552C312.538,317.92 310.128,318.239 308.402,318.596C309.766,317.525 312.132,315.905 313.462,314.936C311.624,315.217 308.657,315.708 307.062,315.729C309.239,314.097 311.469,312.755 313.465,311.693C313.412,311.574 313.358,311.455 313.306,311.337C310.962,312.114 308.292,312.792 305.724,312.98C307.169,311.924 308.612,310.54 310.011,309.594C308.073,309.818 306.133,309.954 304.459,309.916C306.417,308.545 308.396,307.238 310.217,306.075C307.926,306.324 305.746,306.995 303.765,306.917C305.375,305.834 307.034,304.68 308.577,303.725C306.482,303.902 304.055,303.991 302.299,304.181C303.753,303.24 306.268,301.846 307.681,301.008C305.819,301.115 302.827,301.309 301.23,301.169C303.556,299.754 305.907,298.638 307.999,297.778L307.876,297.409C305.465,297.948 302.74,298.352 300.165,298.271C301.705,297.365 303.286,296.13 304.776,295.334C302.82,295.355 300.881,295.28 299.215,295.058C301.307,293.899 303.414,292.809 305.351,291.85C303.048,291.847 300.804,292.275 298.843,291.97C300.564,291.068 302.337,290.104 303.978,289.329C301.885,289.265 299.449,289.074 297.688,289.052C299.245,288.28 301.895,287.188 303.4,286.521C301.543,286.407 298.54,286.239 296.974,285.898C299.446,284.757 301.919,283.942 304.103,283.35L304.026,282.966C301.567,283.208 298.813,283.279 296.266,282.853C297.91,282.141 299.63,281.113 301.21,280.514C299.274,280.28 297.348,279.951 295.732,279.501C297.952,278.621 300.188,277.817 302.237,277.125C299.949,276.813 297.675,276.932 295.77,276.352C297.596,275.688 299.488,274.975 301.22,274.435C299.154,274.08 296.771,273.539 295.03,273.26C296.677,272.712 299.461,272.008 301.046,271.565C299.221,271.184 296.279,270.571 294.778,269.992C297.395,269.222 299.959,268.786 302.207,268.529L302.188,268.138C299.722,268.006 296.987,267.657 294.536,266.83C296.27,266.374 298.127,265.619 299.784,265.274C297.904,264.738 296.061,264.1 294.534,263.387C296.872,262.867 299.203,262.433 301.34,262.085C299.137,261.401 296.867,261.141 295.09,260.242C296.999,259.886 298.986,259.497 300.784,259.256C298.806,258.556 296.554,257.608 294.886,257.026C296.603,256.764 299.471,256.551 301.105,256.391C299.377,255.697 296.589,254.566 295.216,253.718C297.93,253.42 300.532,253.452 302.789,253.605C302.806,253.476 302.824,253.347 302.842,253.217C300.44,252.641 297.814,251.798 295.56,250.521C297.347,250.387 299.316,249.984 301.006,249.953C299.261,249.073 297.573,248.093 296.211,247.093C298.606,247.02 300.979,247.038 303.142,247.109C301.113,246.011 298.938,245.314 297.373,244.076C299.316,244.095 301.341,244.101 303.152,244.221C301.352,243.142 299.337,241.756 297.821,240.845C299.558,240.929 302.408,241.296 304.043,241.471C302.491,240.44 299.994,238.757 298.83,237.636C301.548,237.897 304.088,238.468 306.264,239.087L306.396,238.718C304.167,237.654 301.776,236.28 299.844,234.547C301.621,234.787 303.632,234.806 305.292,235.136C303.903,234.007 302.579,232.803 301.515,231.627C286.14,229.227 273.552,223.698 265.586,220.026C262.99,218.829 260.901,217.836 259.385,217.235C258.677,216.954 258.166,216.735 257.829,216.735C250.3,216.735 240.218,218.48 236.222,217.98L236.222,217.98C233.788,217.676 231.369,216.203 229.64,214.152C227.889,212.073 226.872,209.431 227.097,206.958C227.172,206.138 227.725,205.103 229.277,204.443C231.838,203.352 238.961,202.66 248.23,202.146C259.934,201.497 275.188,201.022 288.667,199.895C297.456,185.52 283.777,178.688 270.152,174.83C264.107,174.794 257.977,174.935 252.044,175.181C252.228,176.592 252.348,180.309 249.755,185.338C249.546,185.744 249.111,185.982 248.656,185.94C248.201,185.897 247.817,185.583 247.686,185.145C247.101,183.193 244.883,179.47 243.393,177.089C243.255,177.926 243.046,178.801 242.729,179.509C242.231,180.623 241.454,181.332 240.45,181.327C240.45,181.327 240.45,181.327 240.45,181.327C239.446,181.321 238.682,180.637 238.184,179.579C238.163,179.535 238.143,179.49 238.123,179.444C238.064,179.614 237.999,179.777 237.93,179.932C237.432,181.046 236.655,181.756 235.651,181.75C235.65,181.75 235.65,181.75 235.65,181.75C234.659,181.744 233.901,181.076 233.403,180.039C233.362,180.148 233.318,180.254 233.272,180.357C232.774,181.47 231.997,182.18 230.993,182.174C229.99,182.168 229.225,181.484 228.728,180.426C228.669,180.302 228.614,180.172 228.563,180.038C228.481,180.298 228.389,180.547 228.286,180.778C227.788,181.892 227.011,182.601 226.006,182.595C225.003,182.59 224.238,181.905 223.741,180.848C223.699,180.76 223.66,180.67 223.622,180.577C223.58,180.686 223.536,180.793 223.49,180.896C222.992,182.009 222.215,182.719 221.211,182.713C220.208,182.707 219.443,182.023 218.946,180.965C218.748,180.545 218.592,180.064 218.469,179.569C217.518,182.016 216.454,185.03 216.268,186.688C216.217,187.144 215.894,187.522 215.452,187.644C215.01,187.766 214.539,187.606 214.262,187.24C211.297,183.327 210.472,180.062 210.252,178.318ZM207.495,166.538C207.249,167.856 207.035,169.523 207.113,171.094C207.151,171.852 207.255,172.587 207.49,173.225C207.69,173.772 207.989,174.247 208.507,174.488C209.206,174.432 211.877,174.213 215.056,173.91C232.164,172.28 275.989,168.296 301.938,173.474C307.716,174.627 312.633,176.243 316.249,178.391C319.231,180.164 321.365,182.318 322.517,184.835C323.705,187.432 323.892,190.441 322.754,193.921C322.288,195.345 321.112,196.692 319.189,197.819C316.929,199.145 313.514,200.256 309.288,201.151C293.767,204.439 266.792,205.063 248.448,206.081C241.851,206.447 236.394,206.86 233.053,207.484C232.289,207.626 231.489,207.874 231.02,208.031C231.122,209.293 231.767,210.56 232.653,211.612C233.731,212.89 235.195,213.88 236.711,214.07C240.617,214.558 250.469,212.794 257.829,212.794C258.347,212.794 259.096,212.938 260.046,213.273C261.651,213.839 264.086,214.995 267.235,216.447C277.321,221.096 295.046,228.869 316.468,228.869C334.743,228.869 358.929,220.853 375.88,206.409C387.013,196.922 395.026,184.644 395.978,169.974C397.505,146.466 377.589,136.325 353.094,133.97L346.249,133.311L352.404,130.244C352.404,130.244 362.895,125.045 367.756,116.173C369.544,112.91 369.945,109.98 369.1,107.383C367.757,103.257 363.51,100.091 357.639,97.701C342.747,91.641 317.556,91.038 296.537,97.023C282.814,100.93 270.839,107.624 264.903,117.647C264.903,117.744 264.908,117.988 264.935,118.158C265.03,118.765 265.254,119.48 265.545,120.251C267.099,124.362 270.533,129.784 270.533,129.784L272.232,132.473L269.067,132.796C269.067,132.796 245.067,135.221 227.728,142.445C230.9,142.403 234.353,142.612 237.203,143.398C240.089,144.194 242.378,145.603 243.529,147.676C244.69,149.765 244.828,152.64 242.88,156.525C240.207,161.853 233.331,164.652 233.331,164.652C232.504,164.982 231.56,164.651 231.121,163.877C231.121,163.877 228.732,159.62 224.929,157.886C224.929,157.886 224.929,157.886 224.929,157.886C224.423,157.656 223.928,157.837 223.452,158.123C222.92,158.443 222.418,158.908 221.944,159.431C219.881,161.708 218.413,165.061 218.413,165.061C218.173,165.605 217.678,165.994 217.092,166.098C216.506,166.201 215.907,166.005 215.496,165.576C215.496,165.576 213.179,163.158 211.172,161.529C210.755,161.191 210.205,160.829 209.855,160.608C208.392,161.902 209.502,164.033 209.502,164.033C209.875,164.815 209.632,165.751 208.927,166.253C208.499,166.557 207.977,166.648 207.495,166.538ZM216.812,177.702C216.1,179.498 215.222,181.837 214.641,183.807C213.134,181.283 212.645,179.253 212.489,178.113C213.354,178.031 214.338,177.937 215.43,177.833C215.873,177.791 216.335,177.747 216.812,177.702ZM249.861,175.889C249.936,176.973 249.88,179.137 248.784,182.03C247.708,179.873 246.14,177.277 245.064,175.556C245.063,175.555 249.86,175.889 249.86,175.889L249.861,175.889ZM222.881,177.143C221.716,177.247 220.606,177.348 219.557,177.445C219.631,178.114 219.757,178.901 219.974,179.612C220.125,180.107 220.315,180.565 220.58,180.896C220.752,181.11 220.953,181.268 221.219,181.269C221.48,181.271 221.672,181.105 221.84,180.886C222.108,180.535 222.301,180.048 222.453,179.521C222.679,178.739 222.808,177.871 222.881,177.143ZM227.703,176.729C226.542,176.825 225.418,176.921 224.337,177.015L224.329,177.101C224.398,177.815 224.527,178.701 224.769,179.495C224.92,179.989 225.11,180.447 225.375,180.778C225.547,180.992 225.748,181.15 226.014,181.152C226.275,181.153 226.467,180.988 226.635,180.768C226.903,180.418 227.096,179.931 227.249,179.404C227.507,178.512 227.637,177.508 227.703,176.729ZM232.538,176.344C231.435,176.428 230.358,176.513 229.308,176.598C229.375,177.325 229.505,178.249 229.756,179.073C229.907,179.568 230.097,180.026 230.362,180.356C230.534,180.571 230.735,180.729 231.001,180.73C231.262,180.732 231.454,180.566 231.622,180.347C231.89,179.996 232.083,179.509 232.235,178.982C232.419,178.346 232.538,177.653 232.616,177.025C232.584,176.787 232.559,176.558 232.538,176.344ZM237.337,175.997C236.253,176.072 235.187,176.148 234.14,176.225C234.121,176.466 234.096,176.732 234.064,177.014C234.141,177.547 234.252,178.119 234.413,178.649C234.564,179.143 234.755,179.602 235.02,179.932C235.191,180.147 235.392,180.305 235.659,180.306C235.919,180.308 236.111,180.142 236.279,179.922C236.547,179.572 236.74,179.085 236.893,178.558C237.138,177.709 237.268,176.759 237.337,175.997ZM242.126,175.688C240.999,175.756 239.886,175.827 238.789,175.9L238.785,175.955C238.856,176.646 238.984,177.477 239.212,178.226C239.363,178.72 239.554,179.179 239.819,179.509C239.99,179.724 240.191,179.881 240.458,179.883C240.718,179.884 240.911,179.719 241.079,179.499C241.347,179.149 241.54,178.662 241.692,178.135C241.925,177.328 242.055,176.429 242.126,175.688Z"/>
            </g>
            <g transform="matrix(1,0,0,1,-2.53821,-3.73834)">
                <path d="M20.458,159.773C19.747,161.569 18.869,163.908 18.287,165.877C16.78,163.354 16.292,161.324 16.135,160.184C17,160.102 17.984,160.008 19.076,159.904C19.52,159.862 19.981,159.818 20.458,159.773Z" style="fill:#fff;"/>
            </g>
            <g transform="matrix(1,0,0,1,-2.53821,-3.73834)">
                <path d="M53.507,157.96C53.582,159.044 53.526,161.208 52.43,164.101C51.354,161.944 49.786,159.348 48.71,157.626C48.71,157.626 53.507,157.96 53.507,157.96L53.507,157.96Z" style="fill:#fff;"/>
            </g>
            <g transform="matrix(1,0,0,1,-2.53821,-3.73834)">
                <path d="M26.527,159.214C25.363,159.318 24.253,159.419 23.204,159.516C23.277,160.185 23.404,160.972 23.621,161.683C23.771,162.178 23.962,162.636 24.227,162.967C24.398,163.181 24.599,163.339 24.866,163.34C25.126,163.342 25.319,163.176 25.487,162.957C25.754,162.606 25.947,162.119 26.1,161.592C26.326,160.81 26.454,159.942 26.527,159.214Z" style="fill:#fff;"/>
            </g>
            <g transform="matrix(1,0,0,1,-2.53821,-3.73834)">
                <path d="M31.35,158.8C30.189,158.896 29.065,158.992 27.983,159.086L27.975,159.172C28.044,159.886 28.174,160.772 28.415,161.566C28.566,162.06 28.757,162.518 29.022,162.849C29.193,163.063 29.394,163.221 29.661,163.222C29.922,163.224 30.114,163.059 30.282,162.839C30.55,162.489 30.743,162.002 30.895,161.475C31.153,160.583 31.284,159.579 31.35,158.8Z" style="fill:#fff;"/>
            </g>
            <g transform="matrix(1,0,0,1,-2.53821,-3.73834)">
                <path d="M36.184,158.415C35.082,158.499 34.004,158.584 32.954,158.668C33.021,159.396 33.151,160.32 33.402,161.144C33.553,161.639 33.744,162.097 34.009,162.427C34.18,162.642 34.381,162.8 34.648,162.801C34.908,162.803 35.101,162.637 35.268,162.418C35.536,162.067 35.729,161.58 35.882,161.053C36.066,160.417 36.185,159.724 36.262,159.096C36.231,158.858 36.205,158.629 36.184,158.415Z" style="fill:#fff;"/>
            </g>
            <g transform="matrix(1,0,0,1,-2.53821,-3.73834)">
                <path d="M40.984,158.068C39.9,158.143 38.833,158.219 37.786,158.296C37.767,158.537 37.743,158.803 37.71,159.084C37.787,159.618 37.899,160.19 38.06,160.72C38.211,161.214 38.401,161.672 38.666,162.003C38.838,162.218 39.039,162.376 39.305,162.377C39.566,162.379 39.758,162.213 39.926,161.993C40.194,161.643 40.387,161.156 40.539,160.629C40.785,159.78 40.915,158.83 40.984,158.068Z" style="fill:#fff;"/>
            </g>
            <g transform="matrix(1,0,0,1,-2.53821,-3.73834)">
                <path d="M45.773,157.759C44.645,157.827 43.532,157.898 42.436,157.97L42.431,158.026C42.503,158.717 42.631,159.548 42.859,160.297C43.01,160.791 43.2,161.249 43.465,161.58C43.637,161.795 43.838,161.952 44.104,161.954C44.365,161.955 44.557,161.79 44.725,161.57C44.993,161.22 45.186,160.733 45.339,160.206C45.572,159.399 45.701,158.5 45.773,157.759Z" style="fill:#fff;"/>
            </g>
            <g transform="matrix(1,0,0,1,-2.53821,-3.73834)">
                <path d="M11.142,148.609C10.896,149.927 10.682,151.594 10.76,153.164C10.798,153.923 10.902,154.658 11.136,155.296C11.337,155.843 11.635,156.318 12.154,156.559C12.852,156.503 15.523,156.284 18.703,155.981C35.81,154.351 79.636,150.367 105.585,155.545C111.363,156.698 116.279,158.314 119.895,160.462C122.878,162.235 125.012,164.389 126.163,166.906C127.352,169.503 127.538,172.512 126.4,175.992C125.934,177.416 124.758,178.762 122.836,179.89C120.575,181.216 117.161,182.327 112.934,183.222C97.414,186.509 70.439,187.134 52.095,188.152C45.498,188.518 40.041,188.931 36.7,189.555C35.935,189.697 35.135,189.945 34.667,190.102C34.769,191.364 35.413,192.631 36.3,193.683C37.377,194.961 38.842,195.951 40.358,196.141C44.264,196.629 54.116,194.865 61.475,194.865C61.993,194.865 62.743,195.009 63.693,195.344C65.298,195.91 67.733,197.066 70.882,198.518C80.967,203.166 98.693,210.94 120.114,210.94C138.389,210.94 162.576,202.924 179.527,188.479C190.659,178.993 198.672,166.715 199.625,152.045C201.151,128.537 181.236,118.396 156.741,116.04L149.896,115.382L156.05,112.315C156.05,112.315 166.541,107.116 171.402,98.244C173.19,94.981 173.592,92.05 172.746,89.454C171.404,85.328 167.157,82.162 161.286,79.772C146.394,73.712 121.202,73.109 100.183,79.094C86.461,83.001 74.486,89.695 68.549,99.718C68.55,99.815 68.555,100.059 68.581,100.228C68.676,100.836 68.901,101.551 69.192,102.322C70.745,106.433 74.179,111.855 74.179,111.855L75.878,114.544L72.714,114.867C72.714,114.867 48.714,117.292 31.375,124.516C34.546,124.474 38,124.683 40.849,125.469C43.736,126.265 46.025,127.674 47.176,129.746C48.337,131.836 48.475,134.711 46.526,138.596C43.854,143.924 36.977,146.723 36.977,146.723C36.15,147.053 35.207,146.722 34.767,145.948C34.767,145.948 32.379,141.691 28.575,139.957C28.575,139.957 28.575,139.957 28.575,139.957C28.07,139.727 27.575,139.908 27.098,140.194C26.567,140.514 26.065,140.979 25.591,141.502C23.528,143.779 22.059,147.132 22.059,147.132C21.82,147.676 21.324,148.065 20.738,148.169C20.153,148.272 19.554,148.076 19.142,147.647C19.142,147.647 16.826,145.229 14.818,143.6C14.402,143.262 13.851,142.9 13.502,142.679C12.038,143.973 13.149,146.104 13.149,146.104C13.522,146.886 13.279,147.822 12.573,148.324C12.146,148.628 11.624,148.719 11.142,148.609Z" style="fill:#fff;"/>
            </g>
            <path d="M261.434,115.768L261.434,115.768L261.434,115.768Z"/>
            <g transform="matrix(0,-1,-1,0,122.669,84.5166)">
                <path d="M-10.858,-10.858C-15.256,-10.858 -18.819,-5.997 -18.819,-0C-18.819,5.997 -15.256,10.858 -10.858,10.858C-6.461,10.858 -2.896,5.997 -2.896,-0C-2.896,-5.997 -6.461,-10.858 -10.858,-10.858" style="fill-rule:nonzero;"/>
            </g>
            <g transform="matrix(0,-1,-1,0,85.0125,88.8955)">
                <path d="M-9.544,-9.544C-13.41,-9.544 -16.543,-5.271 -16.543,-0.001C-16.543,5.27 -13.41,9.544 -9.544,9.544C-5.678,9.544 -2.545,5.27 -2.545,-0.001C-2.545,-5.271 -5.678,-9.544 -9.544,-9.544" style="fill-rule:nonzero;"/>
            </g>
        </g>
    </g>
</svg>
