<?xml version="1.0" encoding="UTF-8" standalone="no"?>
<!DOCTYPE svg PUBLIC "-//W3C//DTD SVG 1.1//EN" "http://www.w3.org/Graphics/SVG/1.1/DTD/svg11.dtd">
<svg width="100%" height="100%" viewBox="0 0 340 175" version="1.1" xmlns="http://www.w3.org/2000/svg" xmlns:xlink="http://www.w3.org/1999/xlink" xml:space="preserve" xmlns:serif="http://www.serif.com/" style="fill-rule:evenodd;clip-rule:evenodd;stroke-linejoin:round;stroke-miterlimit:2;">
    <g transform="matrix(-0.8027,0.0417671,0.034992,0.672494,455.789,-164.216)">
        <path d="M567.3,229.264C506.099,203.688 227.846,232.881 187.364,233.614C141.789,234.439 157.222,258.376 171.452,268.464C187.516,279.853 213.355,277.562 213.355,277.562C213.355,277.562 184.259,283.29 177.35,285.551C151.376,294.052 172.761,308.429 182.265,314.038C193.39,320.605 215.407,323.05 215.407,323.05C215.407,323.05 192.037,326.071 189.737,326.728C160.714,335.018 178.89,353.801 190.934,358.539C207.13,364.911 220.398,363.151 220.398,363.151C220.398,363.151 201.327,370.165 195.055,373.086C172.052,383.8 191.64,396.268 206.944,398.718C220.822,400.94 235.4,398.659 235.4,398.659C235.4,398.659 223.296,405.177 214.747,408.771C189.487,419.389 214.288,432.468 228.431,431.936C240.306,431.489 260.814,428.332 260.814,428.332C260.814,428.332 250.206,435.184 241.442,441.205C225.84,451.924 251.622,459.838 265.565,458.659C288.18,456.747 295.84,450.887 295.84,450.887C295.84,450.887 287.05,459.925 280.935,464.397C266.411,475.017 291.75,483.221 310.144,481.258C344.152,477.629 426.402,458.124 493.788,413.778C521.657,395.437 554.679,354.132 567.882,325.059C581.084,295.986 585.277,236.777 567.3,229.264Z"/>
    </g>
</svg>
