<?xml version="1.0" encoding="UTF-8" standalone="no"?>
<!DOCTYPE svg PUBLIC "-//W3C//DTD SVG 1.1//EN" "http://www.w3.org/Graphics/SVG/1.1/DTD/svg11.dtd">
<svg width="100%" height="100%" viewBox="0 0 360 540" version="1.1" xmlns="http://www.w3.org/2000/svg" xmlns:xlink="http://www.w3.org/1999/xlink" xml:space="preserve" xmlns:serif="http://www.serif.com/" style="fill-rule:evenodd;clip-rule:evenodd;stroke-linejoin:round;stroke-miterlimit:2;">
    <g transform="matrix(0.983207,0,0,1.01127,-727.345,-314.277)">
        <path d="M821.915,438.999C812.444,420.828 799.378,397.289 794.274,395.276C785.871,391.961 753.899,378.886 744.761,382.889C735.623,386.893 740.936,392.007 745.645,401.804C748.619,407.992 770.29,449.101 785.859,478.56C783.527,481.405 781.269,484.242 779.101,487.063C767.483,502.179 756.331,525.323 758.582,569.616C760.099,599.454 761.978,613.326 776.989,634.495C779.404,637.9 786.567,644.754 786.567,644.754C786.567,644.754 786.225,634.763 786.254,631.601C786.26,630.934 786.134,629.506 785.958,627.874C790.763,632.328 796.987,638.641 803.434,644.945C803.526,645.448 803.594,645.894 803.633,646.276C804.377,653.542 799.984,674.026 794.646,679.031C789.307,684.036 788.56,685.052 787.912,686.226C787.265,687.4 787.591,695.471 788.729,703.982C786.467,702.808 781.171,702.966 778.808,706.313C777.132,708.686 770.702,713.892 767.71,726.564C766.784,730.481 764.068,738.573 762.998,748.326C766.441,746.147 773.311,723.25 775.58,719.932C778.936,715.027 784.852,712.772 784.852,712.772C784.852,712.772 786.815,714.211 790.245,715.461C793.545,716.663 797.194,706.97 797.194,706.97C797.194,706.97 803.907,714.388 807.101,727.701C808.28,732.617 817.687,748.238 818.964,751.22C821.405,756.924 826.41,773.301 826.41,773.301C826.41,773.301 826.884,761.527 825.061,754.421C823.239,747.316 814.206,727.444 813.881,723.36C813.555,719.276 807.125,705.219 807.125,705.219C807.125,705.219 812.565,707.921 824.095,709.224C828.703,709.745 834.18,709.807 840.386,713.987C848.009,719.122 848.72,731.319 851.394,737.614C852.45,722.776 848.087,713.217 843.492,709.829C839.107,704.789 834.353,699.635 828.968,701.838C823.833,703.938 814.829,702.14 811.321,699.483C807.813,696.826 805.584,687.003 805.584,682.123C805.584,677.423 807.859,658.326 812.116,653.237C820.512,660.99 828.497,667.366 833.605,669.189C844.363,673.027 861.028,676.145 871.004,679.131C873.407,679.85 876.197,681.104 876.749,681.356C879.728,685.734 884.605,688.669 889.952,690.465C896.111,692.534 902.832,693.113 906.882,693.319C911.078,703.614 914.964,717.2 916.753,722.33C919.116,729.108 918.55,736.896 919.86,741.335C922.5,750.281 904.986,759.163 903.42,763.398C909.624,762.725 913.25,762.281 915.535,766.286C917.501,769.731 905.612,787.357 893.347,797.749C908.619,792.613 918.717,783.829 926.159,769.053C928.644,770.502 937.705,780.2 939.233,784.375C940.762,788.551 947.778,809.278 947.592,811.496C947.313,814.814 947.037,820.33 952.169,821.549C954.345,822.066 956.179,822.411 957.671,821.543C959.761,823.331 960.397,844.759 960.397,844.759C960.397,844.759 965.21,830.775 964.371,821.914C963.84,816.308 956.231,811.141 954.923,808.33C953.614,805.519 950.027,790.794 948.186,781.992C946.043,771.753 944.073,752.236 942.068,746.894C940.063,741.551 929.827,725.81 927.143,719.837C925.802,716.852 922.654,704.56 919.67,692.294C921.68,691.693 923.362,690.914 925.22,690.104C927.823,688.97 929.208,687.397 930.019,685.746C930.783,684.193 931.017,682.472 930.903,680.66C930.843,679.714 930.679,678.734 930.567,677.768C930.539,677.528 930.527,677.149 930.523,676.905C951.334,664.857 973.455,657.602 988.06,640.708C1013.54,611.231 1038.58,559.706 1044.27,541.946C1052.24,517.078 1052.52,488.039 1051.69,479.221C1050.88,470.511 1039.03,434.448 1037.66,429.833C1036.57,426.169 1036.6,420.475 1039.02,415.518C1043.14,407.041 1043.45,402.063 1043.54,398.311C1043.59,396.111 1043.27,394.564 1045.05,392.445C1059.09,375.742 1060.42,357.3 1055.93,345.428C1055.77,344.998 1055.54,344.594 1055.26,344.229C1055.26,344.229 1047.24,336.126 1030.78,325.879C1014.62,315.813 997.94,310.616 979.059,310.779C960.315,310.941 948.862,312.977 936.258,317.742C923.799,322.452 913.903,327.16 903.407,337.31C890.516,349.777 890.109,360.273 885.308,368.039C881.915,373.527 877.867,379.965 871.2,384.577C866.953,387.515 862.995,389.38 858.48,390.468C856.329,390.986 846.246,392.559 846.246,392.559C846.246,392.559 860.901,398.042 865.617,402.199C850.318,411.031 837.741,422.992 821.915,438.999Z"/>
        <path d="M1053.44,361.458C1052.84,370.189 1049.29,380.091 1041.45,389.416C1036.06,395.828 1042.1,398.416 1034.78,413.46C1031.8,419.592 1031.8,426.639 1033.14,431.172C1034.49,435.705 1046.2,471.106 1047.01,479.661C1047.81,488.216 1047.52,516.386 1039.79,540.511C1034.2,557.976 1009.56,608.642 984.5,637.63C970.201,654.169 948.426,661.084 928.056,672.895C922.474,676.131 929.852,682.953 923.341,685.789C919.545,687.443 916.59,688.974 908.877,688.694C903.36,688.494 886.431,687.737 880.449,678.421C877.716,674.166 850.458,670.205 835.187,664.756C822.341,660.173 788.308,614.648 779.248,609.15C779.58,612.362 778.944,617.612 780.508,626.647C770.159,602.897 767.743,592.257 766.285,563.58C764.12,520.978 781.254,502.725 792.427,488.186C819,453.611 855.074,410.615 873.891,403.996C869.441,400.05 861.366,395.043 861.366,395.043C872.082,392.462 881.485,383.772 888.846,373.104C894.196,365.352 899.626,351.305 908.09,343.569C917.667,334.815 922.773,331.807 934.484,326.445C945.605,321.353 962.503,316.955 983.415,317.334C1005.33,317.732 1025.26,327.132 1032.96,331.889C1039.73,336.074 1046.44,342.149 1048.84,344.468C1053.66,344.471 1070.35,344.639 1083.63,345.597C1088.66,345.96 1094.3,346.444 1097.93,348.722C1100.28,350.196 1102.42,352.254 1102.42,352.254L1066.32,357.364L1053.44,361.458Z" style="fill:#ffcb91;"/>
        <g transform="matrix(0.724064,0,0,0.724064,417.541,267.626)">
            <path d="M789.233,122.247C785.653,118.719 779.568,113.979 762.896,119.191C758.814,120.467 759.885,140.926 775.728,142.919C785.617,144.164 789.646,138.619 790.769,135.25C791.954,131.694 792.471,125.44 789.233,122.247Z"/>
        </g>
        <g transform="matrix(1.01708,0,0,0.988858,739.768,310.775)">
            <path d="M257.928,68.066L267.797,68.071C268.151,68.071 268.503,68.015 268.841,67.905L321.834,50.576C321.834,50.576 357.041,45.45 357.041,45.45C358.345,45.26 359.429,44.322 359.833,43.033C360.238,41.744 359.892,40.331 358.942,39.393C358.942,39.393 356.571,37.053 353.972,35.376C349.994,32.808 343.855,32.093 338.339,31.683C324.966,30.692 308.102,30.53 303.65,30.533C302.383,30.534 299.325,30.7 296.677,31.814C294.389,32.776 292.435,34.407 291.473,36.816C291.267,37.332 290.994,37.759 290.762,38.068C281.573,34.097 259.674,25.898 240.193,28.267C240.193,28.267 256.815,31.539 258.807,43.348C245.446,35.607 235.663,37.572 235.663,37.572C235.663,37.572 245.13,37.696 249.242,45.11C251.088,48.44 251.25,54.369 249.569,57.866C247.793,61.56 244.331,63.861 240.189,64.331C231.798,65.284 227.305,61.634 224.853,58.773C221.879,55.304 219.819,48.175 219.736,45.412C210.485,45.588 198.956,44.763 188.336,46.642C181.302,47.886 170.599,51.67 170.599,51.67C170.599,51.67 188.462,49.952 197.999,53.775C207.536,57.599 214.761,65.214 219.046,69.249C223.332,73.285 232.302,82.54 238.174,82.761C244.047,82.983 250.886,79.226 254.659,73.896C256.485,71.316 257.434,69.378 257.928,68.066Z"/>
        </g>
        <g transform="matrix(1.01708,0,0,0.988858,739.768,310.775)">
            <path d="M307.851,47.721L320.024,43.74C320.207,43.68 320.394,43.636 320.584,43.609L346.542,39.829C343.845,39.145 340.724,38.958 337.844,38.744C324.663,37.766 308.042,37.609 303.653,37.612C302.975,37.612 301.493,37.665 300.033,38.1C299.174,38.356 298.19,38.626 297.84,39.504C297.747,39.737 297.652,39.96 297.555,40.174C300.591,40.287 305.794,40.547 308.496,41.061C302.768,44.035 295.425,45.84 283.127,50.221C280.397,51.193 277.478,52.308 274.625,53.437L260.716,59.749C262.759,60.127 271.811,58.842 278.964,56.875C283.566,55.609 293.277,51.335 307.851,47.721Z" style="fill:#fff;"/>
        </g>
        <g transform="matrix(1,0,0,1,-2,0)">
            <path d="M892.619,471.388C895.936,491.114 945.01,493.66 984.96,478.003C984.591,478.032 984.221,478.061 983.854,478.087C976.802,480.005 968.133,482.071 963.712,482.003C959.014,481.931 951.575,480.019 946.49,478.539C941.586,478.689 936.347,478.751 933.247,478.496C929.736,478.207 925.496,476.869 921.966,475.521C917.89,475.855 912.484,475.941 908.581,474.681C905.659,473.738 902.132,472.221 899.093,470.815C897.109,471.112 894.85,471.354 892.619,471.388ZM1020.44,455.627C1012.96,463.326 1003.4,469.64 992.89,474.592C989.853,475.271 985.696,476.068 981.852,476.771C974.677,477.743 966.733,478.692 964.429,478.486C963.112,478.368 960.922,478.201 958.394,478.018C958.46,478.014 958.494,478.012 958.494,478.012C958.494,478.012 958.182,477.995 957.629,477.962C953.875,477.693 949.524,477.396 946.208,477.174C941.611,476.798 937.072,476.333 935.291,475.857C930.554,474.59 914.798,472.414 914.798,472.414C914.798,472.414 915.067,472.548 915.549,472.777C914.489,472.509 913.565,472.221 912.889,471.921C911.343,471.232 908.158,470.443 904.736,469.719C905.159,469.617 905.393,469.554 905.393,469.554C905.393,469.554 904.505,469.507 903.166,469.394C898.59,468.468 893.971,467.698 892.548,467.465C892.609,466.969 892.693,466.466 892.804,465.955C893.207,464.089 893.519,462.253 893.748,460.446C893.94,460.52 894.138,460.588 894.341,460.65C898.287,461.844 903.601,461.224 907.697,460.387C910.905,461.81 914.616,463.336 917.659,464.257C921.722,465.487 927.163,465.182 931.237,464.658C934.934,465.999 939.345,467.301 942.914,467.482C946.065,467.641 951.34,467.37 956.268,467.015C961.546,468.44 969.241,470.247 973.984,470.144C978.447,470.047 986.974,467.446 993.885,465.069C999.162,464.445 1004.79,463.49 1007.83,462.081C1010.09,461.036 1013.02,459.285 1016,457.374C1017.43,456.844 1018.93,456.258 1020.44,455.627ZM1033.11,432.235C1033.35,432.863 1033.62,433.496 1033.94,434.133C1032,439.882 1029.06,445.164 1025.35,449.976C1024.11,450.698 1022.79,451.456 1021.45,452.222C1015.65,455.201 1008.34,458.893 1005.95,459.823C1003.54,460.76 997.305,462.356 991.732,463.704C984.599,465.048 976.689,466.397 974.346,466.26C973.006,466.182 970.781,466.084 968.213,465.981C968.28,465.974 968.314,465.971 968.314,465.971C968.314,465.971 967.998,465.964 967.437,465.95C963.625,465.8 959.209,465.645 955.843,465.529C951.171,465.296 946.548,464.962 944.704,464.509C939.798,463.304 923.692,461.53 923.692,461.53C923.692,461.53 923.977,461.667 924.486,461.9C923.39,461.646 922.429,461.367 921.717,461.063C920.088,460.369 916.796,459.628 913.272,458.966C913.688,458.838 913.917,458.76 913.917,458.76C913.917,458.76 913.018,458.743 911.656,458.671C905.997,457.664 900.3,456.907 900.3,456.907C898.707,456.228 896.463,454.949 894.237,453.586C894.261,452.088 894.232,450.616 894.153,449.173C897.849,449.297 901.997,448.505 905.368,447.626C908.889,448.914 912.958,450.278 916.283,451.048C920.724,452.077 926.603,451.4 930.996,450.583C935.043,451.752 939.863,452.834 943.733,452.791C947.149,452.753 952.849,452.123 958.172,451.427C963.934,452.581 972.325,453.98 977.457,453.561C982.285,453.167 991.426,449.872 998.826,446.918C1004.52,445.916 1010.58,444.543 1013.82,442.86C1016.23,441.613 1019.35,439.578 1022.5,437.371C1025.9,435.921 1029.7,434.157 1033.11,432.235ZM878.549,409.454C877.9,408.718 877.557,408.306 877.557,408.306C877.557,408.306 877.924,408.699 878.549,409.454C883.656,415.243 907.722,441.039 932.741,443.015C984.812,447.126 1034.68,415.571 1034.68,415.571C1034.68,415.571 1030.87,421.52 1032.23,429.058C1030.96,429.873 1029.61,430.729 1028.23,431.592C1022.05,435.107 1014.26,439.472 1011.7,440.607C1009.13,441.751 1002.44,443.838 996.449,445.622C988.774,447.503 980.257,449.441 977.715,449.45C976.262,449.455 973.85,449.497 971.068,449.557C971.139,449.546 971.176,449.54 971.176,449.54C971.176,449.54 970.834,449.553 970.226,449.575C966.094,449.667 961.309,449.792 957.661,449.89C952.596,449.95 947.58,449.901 945.568,449.545C940.216,448.597 922.722,447.783 922.722,447.783C922.722,447.783 923.034,447.909 923.593,448.12C922.399,447.925 921.349,447.694 920.568,447.421C918.781,446.796 915.192,446.232 911.354,445.766C911.8,445.604 912.046,445.507 912.046,445.507C912.046,445.507 911.071,445.547 909.595,445.561C903.435,444.871 897.242,444.447 897.242,444.447C896.197,444.081 894.893,443.506 893.488,442.827C890.783,425.439 881.596,413.136 878.549,409.454Z"/>
        </g>
        <g transform="matrix(1,0,0,1,-2,0)">
            <path d="M1039.28,397.769C1039.33,400.522 1039.23,403.548 1037.74,406.464C1029.8,410.071 1017.29,413.957 1005.6,417.333C993.922,420.708 965.554,426.18 951.192,424.892C966.67,419.86 978.412,414.796 987.315,410.026C990.413,410.297 993.392,410.409 995.756,410.212C1000.84,409.789 1010.73,406.662 1018.77,403.869C1024.82,402.88 1031.29,401.547 1034.85,399.969C1036.16,399.39 1037.67,398.634 1039.28,397.769ZM1046.59,382.427C1044.86,384.968 1042.9,387.474 1040.82,389.503C1039.44,390.849 1039.22,392.819 1039.23,395.123C1036.42,396.427 1034.09,397.472 1032.87,397.94C1030.06,399.018 1022.86,401.011 1016.42,402.717C1008.21,404.535 999.11,406.415 996.454,406.457C995.684,406.469 994.655,406.493 993.448,406.526C999.611,402.767 1004.04,399.257 1007.21,396.17C1010.55,395.18 1014.03,394.026 1017.21,392.925C1022.9,392.066 1028.99,390.874 1032.32,389.38C1034.79,388.273 1038.02,386.459 1041.31,384.491C1043,383.864 1044.79,383.171 1046.59,382.427ZM1010.46,392.675C1015.01,387.185 1015.27,383.713 1015.27,383.713C1015.27,383.713 1040.28,375.431 1053.53,370.336C1052.83,371.747 1051.29,374.847 1049.19,378.355C1048.6,378.672 1048.01,378.993 1047.41,379.315C1041.04,382.441 1033.02,386.322 1030.41,387.327C1027.78,388.34 1021.01,390.171 1014.97,391.734C1013.48,392.05 1011.96,392.368 1010.46,392.675Z"/>
        </g>
        <g transform="matrix(1.0287,0,0,1.05099,-23.74,-28.7367)">
            <path d="M807.646,569.391C808.084,570.84 821.856,595.6 822.655,596.743C825.497,600.805 830.175,603.147 833.918,604.447C836.054,608.384 838.572,612.769 840.763,615.901C843.689,620.084 848.352,622.945 851.957,624.672C854.534,628.788 857.722,633.283 860.636,635.694C863.208,637.822 868.152,643.484 872.405,645.964C876.272,651.155 881.579,655.489 885.583,658.211C886.633,658.925 896.848,662.83 898.45,663.388C897.324,664.975 887.568,662.947 885.9,663.047C883.955,663.163 881.264,663.17 878.064,662.991C875.669,661.824 873.81,660.798 872.959,660.078C871.79,659.091 869.832,657.492 867.567,655.662C867.631,655.697 867.664,655.715 867.664,655.715C867.664,655.715 867.382,655.497 866.883,655.109C863.518,652.393 859.613,649.271 856.634,646.895C852.537,643.504 848.536,640.015 847.108,638.211C843.308,633.41 829.692,620.468 829.692,620.468C829.692,620.468 829.877,620.833 830.215,621.469C829.358,620.418 828.636,619.422 828.152,618.559C827.044,616.585 824.459,613.451 821.621,610.267C822.064,610.376 822.312,610.428 822.312,610.428C822.312,610.428 821.509,609.81 820.316,608.817C815.733,603.774 810.984,599.029 810.984,599.029C810.88,598.843 795.64,576.25 795.532,576.044C798.668,574.327 804.09,573.496 807.646,569.391ZM822.96,562.104C825.594,569.962 841.552,591.845 845.716,592.985C848.113,596.852 850.937,601.153 853.391,604.208C856.668,608.287 861.871,610.958 865.891,612.536C868.778,616.563 872.349,620.944 875.603,623.241C878.476,625.268 883.51,627.893 888.255,630.2C892.584,635.251 899.007,642.229 903.475,644.79C907.679,647.199 916.721,648.35 924.162,648.898C929.345,651.019 934.997,652.869 938.423,652.59C940.963,652.383 944.436,651.558 948.009,650.522C949.402,650.573 950.871,650.595 952.367,650.57C945.09,655.044 936.807,659.156 926.423,662.004C923.308,662.858 915.945,665.315 905.959,662.68C901.596,661.529 888.299,653.762 887.369,652.977C886.279,652.057 874.955,642.963 872.186,640.767C868.371,637.616 864.635,634.353 863.267,632.602C859.628,627.944 846.847,615.72 846.847,615.72C846.847,615.72 847.033,616.084 847.369,616.718C846.551,615.7 845.854,614.727 845.375,613.871C844.279,611.911 841.812,608.881 839.119,605.822C839.516,605.893 839.738,605.923 839.738,605.923C839.738,605.923 838.993,605.354 837.882,604.431C833.538,599.596 829.066,595.09 829.066,595.09C828.313,593.743 814.498,570.952 813.559,568.776C815.753,567.524 820.698,563.422 822.96,562.104ZM789.931,577.71C791.473,583.337 812.276,607.005 815.846,608.411C817.999,612.369 820.553,616.793 822.82,619.994C825.847,624.269 830.918,627.475 834.871,629.495C837.509,633.669 840.812,638.267 843.94,640.862C846.702,643.152 851.606,646.291 856.241,649.094C859.239,653.066 863.338,658.2 867.027,661.802C851.774,659.392 832.571,653.165 822.646,638.922C817.341,631.308 786.095,599.992 786.095,599.992C786.095,599.992 784.521,582.54 789.931,577.71ZM839.69,556.69C839.917,556.77 842.888,569.668 850.731,574.561C852.921,578.525 857.99,582.665 860.284,585.831C863.347,590.058 868.431,593.014 872.388,594.817C875.063,598.97 878.405,603.514 881.549,605.981C884.324,608.158 889.242,611.057 893.887,613.624C897.953,618.876 904.017,626.158 908.368,628.96C912.462,631.596 921.501,633.284 928.962,634.28C934.059,636.691 939.644,638.863 943.11,638.797C945.68,638.748 949.225,638.146 952.884,637.341C958.712,637.904 965.884,638.051 971.066,636.345C971.225,636.292 971.383,636.238 971.538,636.184C968.988,638.774 966.586,640.927 964.438,642.449C963.204,643.324 961.956,644.205 960.689,645.085C958.99,645.475 957.139,645.876 955.251,646.27C948.593,647.216 940.224,648.319 937.607,648.284C934.967,648.248 928.487,646.971 922.724,645.716C915.508,643.565 907.565,640.977 905.436,639.443C904.218,638.566 902.184,637.155 899.832,635.542C899.896,635.571 899.93,635.585 899.93,635.585C899.93,635.585 899.638,635.395 899.121,635.055C895.627,632.664 891.573,629.919 888.481,627.832C884.22,624.831 880.046,621.713 878.516,620.013C874.443,615.487 860.16,603.754 860.16,603.754C860.16,603.754 860.368,604.113 860.746,604.736C859.83,603.748 859.05,602.8 858.512,601.959C857.283,600.035 854.522,597.096 851.511,594.138C851.952,594.192 852.199,594.212 852.199,594.212C852.199,594.212 851.367,593.673 850.126,592.793C845.269,588.121 839,580.292 839,580.292C834.747,574.439 828.604,562.93 828.26,562.314C832.697,559.675 835.35,559.423 839.69,556.69ZM844.554,552.623C847.241,550.372 848.242,550.688 850.201,546.324C859.561,563.009 894.203,615.275 945.118,625.499C975.77,631.654 1012.13,582.294 1012.13,582.294C1012.13,582.294 993.921,610.548 977.998,629.103C976.195,630.149 974.2,631.08 972.224,631.561C969.673,632.183 965.161,632.91 960.423,633.586C953.663,634.113 945.171,634.69 942.537,634.495C939.881,634.299 933.429,632.642 927.699,631.051C920.557,628.486 912.708,625.446 910.652,623.801C909.477,622.86 907.51,621.343 905.235,619.607C905.299,619.639 905.331,619.655 905.331,619.655C905.331,619.655 905.048,619.449 904.547,619.082C901.167,616.508 897.244,613.55 894.251,611.3C890.134,608.077 886.112,604.744 884.669,602.971C880.83,598.254 867.126,585.797 867.126,585.797C867.126,585.797 867.315,586.163 867.659,586.801C866.794,585.77 866.064,584.786 865.571,583.923C864.445,581.949 861.835,578.878 858.974,575.773C859.415,575.853 859.663,575.888 859.663,575.888C859.663,575.888 858.856,575.305 857.658,574.361C856.949,573.608 845.252,553.345 844.554,552.623Z"/>
        </g>
    </g>
</svg>
